# xmcd
#
# Track frame offsets: 
#        150
#        20782
#        36254
#
# Disc length: 685 seconds
#
# Revision: 0
# Processed by: cddbd v1.5.2PL0 Copyright (c) Steve Scherf et al.
# Submitted via: ExactAudioCopy v1.2
#
DISCID=2102ab03
DTITLE=平井堅 - ノンフィクション
DYEAR=2017
DGENRE=JPop
TTITLE0=ノンフィクション
TTITLE1=Brand New Bike
TTITLE2=魔法って言っていいかな? (VaVa Remix)
EXTD=
EXTT0=
EXTT1=
EXTT2=
PLAYORDER=
